<svg xmlns="http://www.w3.org/2000/svg" viewBox="0 0 320 80" width="320" height="80">
<defs><linearGradient id="gai" x1="218" y1="43.5" x2="265" y2="43.5" gradientUnits="userSpaceOnUse"><stop offset="0" stop-color="#8B5CF6"/><stop offset="1" stop-color="#22D3EE"/></linearGradient></defs>
<path d="M43.2372 36.0909L35.0788 59H29.1129L20.9545 36.0909H26.7116L31.9766 53.1087H32.2152L37.495 36.0909H43.2372ZM56.913 36.0909V40.267H43.7433V36.0909H56.913ZM46.9947 30.6023H52.3938V52.1094C52.3938 52.8352 52.5032 53.392 52.7219 53.7798C52.9506 54.1577 53.2489 54.4162 53.6168 54.5554C53.9847 54.6946 54.3924 54.7642 54.8398 54.7642C55.1779 54.7642 55.4862 54.7393 55.7646 54.6896C56.0529 54.6399 56.2717 54.5952 56.4208 54.5554L57.3306 58.7763C57.0423 58.8757 56.6296 58.9851 56.0927 59.1044C55.5657 59.2237 54.9194 59.2933 54.1538 59.3132C52.8015 59.353 51.5835 59.1491 50.4996 58.7017C49.4158 58.2443 48.5558 57.5384 47.9194 56.5838C47.293 55.6293 46.9847 54.4361 46.9947 53.0043V30.6023ZM69.8244 59.4474C67.5275 59.4474 65.5439 58.9702 63.8734 58.0156C62.2129 57.0511 60.9352 55.6889 60.0403 53.929C59.1454 52.1591 58.698 50.076 58.698 47.6797C58.698 45.3232 59.1454 43.255 60.0403 41.4751C60.9451 39.6854 62.2079 38.2933 63.8287 37.299C65.4494 36.2947 67.3535 35.7926 69.541 35.7926C70.9529 35.7926 72.2853 36.0213 73.5382 36.4787C74.801 36.9261 75.9146 37.6222 76.8791 38.5668C77.8535 39.5114 78.6191 40.7145 79.176 42.1761C79.7328 43.6278 80.0112 45.358 80.0112 47.3665V49.022H61.2335V45.3828H74.8358C74.8258 44.3487 74.6021 43.429 74.1646 42.6236C73.7271 41.8082 73.1156 41.1669 72.3301 40.6996C71.5545 40.2322 70.6497 39.9986 69.6156 39.9986C68.5119 39.9986 67.5424 40.267 66.7072 40.804C65.872 41.331 65.2207 42.027 64.7534 42.892C64.296 43.7472 64.0623 44.6868 64.0524 45.7109V48.8878C64.0524 50.2202 64.296 51.3636 64.7832 52.3182C65.2704 53.2628 65.9515 53.9886 66.8265 54.4957C67.7015 54.9929 68.7257 55.2415 69.899 55.2415C70.6845 55.2415 71.3954 55.1321 72.0318 54.9134C72.6681 54.6847 73.22 54.3516 73.6873 53.9141C74.1547 53.4766 74.5076 52.9347 74.7463 52.2884L79.7875 52.8551C79.4693 54.1875 78.8627 55.3509 77.9679 56.3452C77.0829 57.3295 75.9494 58.0952 74.5673 58.642C73.1852 59.179 71.6042 59.4474 69.8244 59.4474ZM88.478 45.5767V59H83.0788V36.0909H88.2393V39.9837H88.5078C89.0348 38.701 89.875 37.6818 91.0284 36.9261C92.1918 36.1705 93.6286 35.7926 95.3388 35.7926C96.9197 35.7926 98.2969 36.1307 99.4702 36.8068C100.653 37.483 101.568 38.4624 102.214 39.745C102.871 41.0277 103.194 42.5838 103.184 44.4134V59H97.7848V45.2486C97.7848 43.7173 97.3871 42.5192 96.5916 41.6541C95.8061 40.7891 94.7173 40.3565 93.3253 40.3565C92.3807 40.3565 91.5405 40.5653 90.8047 40.983C90.0788 41.3906 89.5071 41.9822 89.0895 42.7578C88.6818 43.5334 88.478 44.473 88.478 45.5767ZM125.279 42.1463L120.357 42.6832C120.218 42.1861 119.974 41.7188 119.626 41.2812C119.288 40.8438 118.831 40.4908 118.254 40.2223C117.678 39.9538 116.972 39.8196 116.136 39.8196C115.013 39.8196 114.068 40.0632 113.303 40.5504C112.547 41.0376 112.174 41.669 112.184 42.4446C112.174 43.1108 112.418 43.6527 112.915 44.0703C113.422 44.4879 114.257 44.831 115.42 45.0994L119.328 45.9347C121.496 46.402 123.107 47.1428 124.161 48.157C125.224 49.1712 125.761 50.4986 125.771 52.1392C125.761 53.581 125.339 54.8537 124.504 55.9574C123.678 57.0511 122.53 57.9062 121.058 58.5227C119.587 59.1392 117.896 59.4474 115.987 59.4474C113.183 59.4474 110.926 58.8608 109.216 57.6875C107.506 56.5043 106.487 54.8587 106.158 52.7507L111.423 52.2436C111.662 53.2777 112.169 54.0582 112.945 54.5852C113.72 55.1122 114.729 55.3757 115.972 55.3757C117.255 55.3757 118.284 55.1122 119.06 54.5852C119.845 54.0582 120.238 53.407 120.238 52.6314C120.238 51.9751 119.984 51.4332 119.477 51.0057C118.98 50.5781 118.205 50.25 117.151 50.0213L113.243 49.201C111.045 48.7436 109.42 47.973 108.366 46.8892C107.312 45.7955 106.79 44.4134 106.8 42.7429C106.79 41.331 107.173 40.108 107.948 39.0739C108.734 38.0298 109.822 37.2244 111.214 36.6577C112.616 36.081 114.232 35.7926 116.062 35.7926C118.746 35.7926 120.859 36.3643 122.401 37.5078C123.952 38.6513 124.911 40.1974 125.279 42.1463ZM138.716 59.4474C136.479 59.4474 134.54 58.9553 132.9 57.9709C131.259 56.9865 129.986 55.6094 129.081 53.8395C128.186 52.0696 127.739 50.0014 127.739 47.6349C127.739 45.2685 128.186 43.1953 129.081 41.4155C129.986 39.6357 131.259 38.2536 132.9 37.2692C134.54 36.2848 136.479 35.7926 138.716 35.7926C140.953 35.7926 142.892 36.2848 144.533 37.2692C146.174 38.2536 147.441 39.6357 148.336 41.4155C149.241 43.1953 149.694 45.2685 149.694 47.6349C149.694 50.0014 149.241 52.0696 148.336 53.8395C147.441 55.6094 146.174 56.9865 144.533 57.9709C142.892 58.9553 140.953 59.4474 138.716 59.4474ZM138.746 55.1222C139.959 55.1222 140.973 54.7891 141.789 54.1229C142.604 53.4467 143.211 52.5419 143.608 51.4084C144.016 50.2749 144.22 49.0121 144.22 47.62C144.22 46.218 144.016 44.9503 143.608 43.8168C143.211 42.6733 142.604 41.7635 141.789 41.0874C140.973 40.4112 139.959 40.0732 138.746 40.0732C137.503 40.0732 136.469 40.4112 135.644 41.0874C134.828 41.7635 134.217 42.6733 133.809 43.8168C133.412 44.9503 133.213 46.218 133.213 47.62C133.213 49.0121 133.412 50.2749 133.809 51.4084C134.217 52.5419 134.828 53.4467 135.644 54.1229C136.469 54.7891 137.503 55.1222 138.746 55.1222ZM152.776 59V36.0909H158.011V39.9091H158.25C158.667 38.5866 159.383 37.5675 160.398 36.8516C161.422 36.1257 162.59 35.7628 163.903 35.7628C164.201 35.7628 164.534 35.7777 164.902 35.8075C165.28 35.8274 165.593 35.8622 165.841 35.9119V40.8786C165.613 40.799 165.25 40.7294 164.753 40.6697C164.265 40.6001 163.793 40.5653 163.336 40.5653C162.351 40.5653 161.466 40.7791 160.681 41.2067C159.905 41.6243 159.294 42.206 158.846 42.9517C158.399 43.6974 158.175 44.5575 158.175 45.532V59H152.776Z" fill="white"/>
<circle cx="184" cy="20" r="4" fill="#8B5CF6"/>
<path d="M224.249 59.3878C223.265 59.3878 222.42 59.0398 221.714 58.3438C221.018 57.6378 220.67 56.7926 220.67 55.8082C220.67 54.8338 221.018 53.9986 221.714 53.3026C222.42 52.6065 223.265 52.2585 224.249 52.2585C225.204 52.2585 226.039 52.6065 226.755 53.3026C227.471 53.9986 227.829 54.8338 227.829 55.8082C227.829 56.4645 227.66 57.0661 227.322 57.6129C226.994 58.1499 226.561 58.5824 226.024 58.9105C225.487 59.2287 224.896 59.3878 224.249 59.3878ZM238.578 59.4325C237.116 59.4325 235.814 59.179 234.67 58.6719C233.527 58.1548 232.622 57.3942 231.956 56.3899C231.3 55.3757 230.971 54.1129 230.971 52.6016C230.971 51.3288 231.205 50.2599 231.672 49.3949C232.14 48.5298 232.776 47.8338 233.581 47.3068C234.387 46.7798 235.302 46.3821 236.326 46.1136C237.36 45.8452 238.444 45.6562 239.577 45.5469C240.91 45.4077 241.983 45.2784 242.799 45.1591C243.614 45.0298 244.206 44.8409 244.574 44.5923C244.942 44.3437 245.126 43.9759 245.126 43.4886V43.3991C245.126 42.4545 244.827 41.7237 244.231 41.2067C243.644 40.6896 242.809 40.4311 241.725 40.4311C240.581 40.4311 239.672 40.6847 238.996 41.1918C238.319 41.6889 237.872 42.3153 237.653 43.071L231.777 42.5938C232.075 41.2017 232.662 39.9986 233.537 38.9844C234.412 37.9602 235.54 37.1747 236.922 36.6278C238.314 36.071 239.925 35.7926 241.755 35.7926C243.028 35.7926 244.246 35.9418 245.409 36.2401C246.582 36.5384 247.621 37.0007 248.526 37.6271C249.441 38.2536 250.162 39.0589 250.689 40.0433C251.216 41.0178 251.479 42.1861 251.479 43.5483V59H245.454V55.8232H245.275C244.907 56.5391 244.415 57.1705 243.798 57.7173C243.182 58.2543 242.441 58.6768 241.576 58.9851C240.711 59.2834 239.711 59.4325 238.578 59.4325ZM240.398 55.0476C241.332 55.0476 242.157 54.8636 242.873 54.4957C243.589 54.1179 244.151 53.6108 244.559 52.9744C244.966 52.3381 245.17 51.6172 245.17 50.8118V48.3807C244.971 48.5099 244.698 48.6293 244.35 48.7386C244.012 48.8381 243.629 48.9325 243.202 49.022C242.774 49.1016 242.346 49.1761 241.919 49.2457C241.491 49.3054 241.104 49.3601 240.756 49.4098C240.01 49.5192 239.358 49.6932 238.802 49.9318C238.245 50.1705 237.812 50.4936 237.504 50.9013C237.196 51.299 237.042 51.7962 237.042 52.3928C237.042 53.2578 237.355 53.919 237.981 54.3764C238.618 54.8239 239.423 55.0476 240.398 55.0476ZM255.409 59V36.0909H261.762V59H255.409ZM258.6 33.1378C257.656 33.1378 256.845 32.8246 256.169 32.1982C255.503 31.5618 255.17 30.8011 255.17 29.9162C255.17 29.0412 255.503 28.2905 256.169 27.6641C256.845 27.0277 257.656 26.7095 258.6 26.7095C259.545 26.7095 260.35 27.0277 261.017 27.6641C261.693 28.2905 262.031 29.0412 262.031 29.9162C262.031 30.8011 261.693 31.5618 261.017 32.1982C260.35 32.8246 259.545 33.1378 258.6 33.1378Z" fill="url(#gai)"/>
</svg>