<svg xmlns="http://www.w3.org/2000/svg" viewBox="15.657 19.137 46.545 46.545" width="256" height="256">
<defs><linearGradient id="gv" x1="20.95" y1="44.8" x2="56.91" y2="44.8" gradientUnits="userSpaceOnUse"><stop offset="0" stop-color="#8B5CF6"/><stop offset="1" stop-color="#22D3EE"/></linearGradient></defs>
<path d="M43.2372 36.0909L35.0788 59H29.1129L20.9545 36.0909H26.7116L31.9766 53.1087H32.2152L37.495 36.0909H43.2372ZM56.913 36.0909V40.267H43.7433V36.0909H56.913ZM46.9947 30.6023H52.3938V52.1094C52.3938 52.8352 52.5032 53.392 52.7219 53.7798C52.9506 54.1577 53.2489 54.4162 53.6168 54.5554C53.9847 54.6946 54.3924 54.7642 54.8398 54.7642C55.1779 54.7642 55.4862 54.7393 55.7646 54.6896C56.0529 54.6399 56.2717 54.5952 56.4208 54.5554L57.3306 58.7763C57.0423 58.8757 56.6296 58.9851 56.0927 59.1044C55.5657 59.2237 54.9194 59.2933 54.1538 59.3132C52.8015 59.353 51.5835 59.1491 50.4996 58.7017C49.4158 58.2443 48.5558 57.5384 47.9194 56.5838C47.293 55.6293 46.9847 54.4361 46.9947 53.0043V30.6023Z" fill="url(#gv)"/>
<circle cx="58.021" cy="26.418" r="2.727" fill="#8B5CF6"/>
</svg>